<svg width="488" height="49" viewBox="0 0 488 49" fill="none" xmlns="http://www.w3.org/2000/svg">
<path d="M23.4 48.594C18.648 48.594 14.534 47.692 11.058 45.888C7.62596 44.04 4.98596 41.422 3.13796 38.034C1.28996 34.602 0.365956 30.576 0.365956 25.956C0.365956 20.808 1.39996 16.32 3.46796 12.492C5.57996 8.62 8.52796 5.65 12.312 3.582C16.14 1.47 20.584 0.413999 25.644 0.413999C28.768 0.413999 31.716 0.853999 34.488 1.734C37.26 2.614 39.724 3.89 41.88 5.562L37.392 14.34C35.5 12.888 33.652 11.832 31.848 11.172C30.044 10.512 28.174 10.182 26.238 10.182C22.014 10.182 18.736 11.59 16.404 14.406C14.072 17.178 12.906 21.028 12.906 25.956C12.906 30.136 13.808 33.326 15.612 35.526C17.46 37.726 20.144 38.826 23.664 38.826C25.512 38.826 27.404 38.496 29.34 37.836C31.32 37.132 33.476 36.076 35.808 34.668L38.91 43.446C37.326 44.986 35.104 46.24 32.244 47.208C29.384 48.132 26.436 48.594 23.4 48.594ZM74.4143 48.66C69.7063 48.66 65.5923 47.758 62.0723 45.954C58.5523 44.106 55.8463 41.466 53.9543 38.034C52.0623 34.602 51.1163 30.576 51.1163 25.956C51.1163 20.852 52.0843 16.364 54.0203 12.492C56.0003 8.62 58.7943 5.628 62.4023 3.516C66.0103 1.404 70.1903 0.347996 74.9423 0.347996C79.6503 0.347996 83.7643 1.272 87.2843 3.12C90.8043 4.924 93.5103 7.542 95.4023 10.974C97.2943 14.406 98.2403 18.432 98.2403 23.052C98.2403 28.156 97.2503 32.644 95.2703 36.516C93.3343 40.388 90.5623 43.38 86.9543 45.492C83.3463 47.604 79.1663 48.66 74.4143 48.66ZM74.2823 39.156C77.8463 39.156 80.6623 37.726 82.7303 34.866C84.8423 32.006 85.8983 28.068 85.8983 23.052C85.8983 18.872 84.9523 15.638 83.0603 13.35C81.1683 11.018 78.5283 9.852 75.1403 9.852C71.4883 9.852 68.6283 11.282 66.5603 14.142C64.4923 17.002 63.4583 20.94 63.4583 25.956C63.4583 30.18 64.3823 33.436 66.2303 35.724C68.1223 38.012 70.8063 39.156 74.2823 39.156ZM155.904 1.008L152.208 48H142.968L123.828 21.798L121.716 48H110.232L113.928 1.008H122.97L142.176 27.276L144.354 1.008H155.904ZM180.893 11.04H166.769L167.561 1.008H208.085L207.359 11.04H193.301L190.463 48H177.989L180.893 11.04ZM242.598 38.298H221.676L216.792 48H204.186L229.794 1.008H239.694L257.91 48H246.03L242.598 38.298ZM239.298 28.992L233.952 14.01L226.428 28.992H239.298ZM289.656 48.594C284.904 48.594 280.79 47.692 277.314 45.888C273.882 44.04 271.242 41.422 269.394 38.034C267.546 34.602 266.622 30.576 266.622 25.956C266.622 20.808 267.656 16.32 269.724 12.492C271.836 8.62 274.784 5.65 278.568 3.582C282.396 1.47 286.84 0.413999 291.9 0.413999C295.024 0.413999 297.972 0.853999 300.744 1.734C303.516 2.614 305.98 3.89 308.136 5.562L303.648 14.34C301.756 12.888 299.908 11.832 298.104 11.172C296.3 10.512 294.43 10.182 292.494 10.182C288.27 10.182 284.992 11.59 282.66 14.406C280.328 17.178 279.162 21.028 279.162 25.956C279.162 30.136 280.064 33.326 281.868 35.526C283.716 37.726 286.4 38.826 289.92 38.826C291.768 38.826 293.66 38.496 295.596 37.836C297.576 37.132 299.732 36.076 302.064 34.668L305.166 43.446C303.582 44.986 301.36 46.24 298.5 47.208C295.64 48.132 292.692 48.594 289.656 48.594ZM330.695 11.04H316.571L317.363 1.008H357.887L357.161 11.04H343.103L340.265 48H327.791L330.695 11.04ZM413.309 48.594C399.625 48.594 392.783 42.456 392.783 30.18C392.783 29.564 392.827 28.64 392.915 27.408L395.027 1.008H407.171L405.059 27.804C405.015 28.288 404.993 28.97 404.993 29.85C404.993 32.974 405.719 35.306 407.171 36.846C408.667 38.386 410.933 39.156 413.969 39.156C416.389 39.156 418.303 38.408 419.711 36.912C421.119 35.416 421.977 32.886 422.285 29.322L424.595 1.008H436.673L434.561 28.53C434.077 35.174 432.031 40.19 428.423 43.578C424.859 46.922 419.821 48.594 413.309 48.594ZM465.842 48.594C462.234 48.594 458.714 48.154 455.282 47.274C451.85 46.35 448.88 45.074 446.372 43.446L450.926 34.668C455.634 37.616 460.76 39.09 466.304 39.09C471.452 39.09 474.026 37.814 474.026 35.262C474.026 33.898 473.3 32.842 471.848 32.094C470.44 31.302 468.196 30.444 465.116 29.52C461.904 28.596 459.242 27.672 457.13 26.748C455.018 25.78 453.192 24.394 451.652 22.59C450.156 20.742 449.408 18.344 449.408 15.396C449.408 12.404 450.244 9.786 451.916 7.542C453.588 5.254 455.942 3.494 458.978 2.262C462.058 1.03 465.644 0.413999 469.736 0.413999C473.168 0.413999 476.446 0.875998 479.57 1.8C482.694 2.724 485.18 3.978 487.028 5.562L482.606 14.34C480.67 12.932 478.536 11.854 476.204 11.106C473.872 10.314 471.628 9.918 469.472 9.918C467.052 9.918 465.138 10.314 463.73 11.106C462.322 11.854 461.618 12.91 461.618 14.274C461.618 15.682 462.322 16.76 463.73 17.508C465.182 18.256 467.47 19.07 470.594 19.95C473.85 20.874 476.512 21.798 478.58 22.722C480.692 23.646 482.496 25.01 483.992 26.814C485.532 28.618 486.302 30.95 486.302 33.81C486.302 38.518 484.52 42.17 480.956 44.766C477.392 47.318 472.354 48.594 465.842 48.594Z" fill="url(#paint0_linear_566_146)"/>
<defs>
<linearGradient id="paint0_linear_566_146" x1="-70.4615" y1="-23" x2="733.461" y2="18.1197" gradientUnits="userSpaceOnUse">
<stop stop-color="#0AFA96"/>
<stop offset="1" stop-color="#1E1E32"/>
</linearGradient>
</defs>
</svg>
