<svg width="40" height="40" viewBox="0 0 40 40" fill="none" xmlns="http://www.w3.org/2000/svg">
<path d="M26.9531 15.8203H25.1211C24.7227 15.8203 24.3438 16.0117 24.1094 16.3359L20 22.0156L15.8906 16.3359C15.6563 16.0117 15.2813 15.8203 14.8789 15.8203H13.0469C12.793 15.8203 12.6445 16.1094 12.793 16.3164L19.7461 25.9258C19.8711 26.0977 20.125 26.0977 20.25 25.9258L27.2031 16.3164C27.3555 16.1094 27.207 15.8203 26.9531 15.8203V15.8203Z" fill="#1E1E32"/>
<path d="M20 2.5C10.3359 2.5 2.5 10.3359 2.5 20C2.5 29.6641 10.3359 37.5 20 37.5C29.6641 37.5 37.5 29.6641 37.5 20C37.5 10.3359 29.6641 2.5 20 2.5ZM20 34.5312C11.9766 34.5312 5.46875 28.0234 5.46875 20C5.46875 11.9766 11.9766 5.46875 20 5.46875C28.0234 5.46875 34.5312 11.9766 34.5312 20C34.5312 28.0234 28.0234 34.5312 20 34.5312Z" fill="#1E1E32"/>
</svg>
