<svg width="36" height="36" viewBox="0 0 36 36" fill="none" xmlns="http://www.w3.org/2000/svg">
<path d="M18 35.5C27.6641 35.5 35.5 27.6641 35.5 18C35.5 8.33594 27.6641 0.5 18 0.5C8.33594 0.5 0.5 8.33594 0.5 18C0.5 27.6641 8.33594 35.5 18 35.5ZM10.793 21.6836L17.7461 12.0742C17.7749 12.0343 17.8127 12.0018 17.8565 11.9793C17.9003 11.9569 17.9488 11.9452 17.998 11.9452C18.0473 11.9452 18.0958 11.9569 18.1396 11.9793C18.1834 12.0018 18.2212 12.0343 18.25 12.0742L25.2031 21.6836C25.3516 21.8906 25.2031 22.1797 24.9492 22.1797H23.1172C22.7188 22.1797 22.3398 21.9883 22.1055 21.6641L18 15.9844L13.8906 21.6641C13.6562 21.9883 13.2813 22.1797 12.8789 22.1797H11.0469C10.793 22.1797 10.6445 21.8906 10.793 21.6836Z" fill="#1E1E32"/>
</svg>
