<svg width="62" height="62" viewBox="0 0 62 62" fill="none" xmlns="http://www.w3.org/2000/svg">
<path d="M1.50306 17.9249L29.7104 30.7207C30.5338 31.0949 31.465 31.0949 32.2884 30.7207L60.4957 17.9249C62.4998 17.0155 62.4998 13.987 60.4957 13.0776L32.2896 0.280626C31.8851 0.0957079 31.4454 0 31.0006 0C30.5558 0 30.1161 0.0957079 29.7116 0.280626L1.50306 13.0764C-0.50102 13.9858 -0.50102 17.0155 1.50306 17.9249ZM60.4969 28.6149L53.4627 25.4266L33.8893 34.299C32.9738 34.7143 32.0014 34.925 31 34.925C29.9986 34.925 29.0274 34.7143 28.1107 34.299L8.53854 25.4266L1.50306 28.6149C-0.50102 29.5231 -0.50102 32.5504 1.50306 33.4586L29.7104 46.2447C30.5338 46.6177 31.465 46.6177 32.2884 46.2447L60.4969 33.4586C62.501 32.5504 62.501 29.5231 60.4969 28.6149ZM60.4969 44.0905L53.4893 40.9143L33.8893 49.7988C32.9738 50.2141 32.0014 50.4248 31 50.4248C29.9986 50.4248 29.0274 50.2141 28.1107 49.7988L8.5119 40.9143L1.50306 44.0905C-0.50102 44.9987 -0.50102 48.026 1.50306 48.9342L29.7104 61.7203C30.5338 62.0932 31.465 62.0932 32.2884 61.7203L60.4969 48.9342C62.501 48.026 62.501 44.9987 60.4969 44.0905Z" fill="#0AFA96"/>
</svg>
