<svg width="60" height="59" viewBox="0 0 60 59" fill="none" xmlns="http://www.w3.org/2000/svg">
<path d="M22.2034 25.075L36.5121 0.708074C32.0875 -0.263651 27.4964 -0.234865 23.0848 0.792261C18.6732 1.81939 14.5563 3.81805 11.0444 6.63756L22.0234 25.37L22.2034 25.075ZM58.6201 20.65C55.8603 12.036 49.171 5.13306 40.6217 1.94707L29.6427 20.65H58.6201ZM59.4 23.6H36.9321L37.802 25.075L52.0807 49.4124C57.1824 43.9964 60.0116 36.8827 60 29.5C60 27.4645 59.79 25.5175 59.4 23.6ZM19.6236 29.5L7.92471 9.58755C4.71051 13.0109 2.37046 17.137 1.09779 21.6252C-0.17488 26.1134 -0.343663 30.835 0.605376 35.4H23.0733L19.6236 29.5ZM1.3853 38.35C4.14505 46.964 10.8344 53.8669 19.3837 57.0529L30.3627 38.35H1.3853ZM35.1922 38.35L23.4933 58.2919C27.9178 59.2636 32.509 59.2349 36.9206 58.2077C41.3322 57.1806 45.4491 55.1819 48.961 52.3624L37.982 33.63L35.1922 38.35Z" fill="#0AFA96"/>
</svg>
