<svg width="60" height="72" viewBox="0 0 60 72" fill="none" xmlns="http://www.w3.org/2000/svg">
<path d="M27.5814 57.572L57.5715 27.574C57.7063 27.4392 57.7698 27.2568 57.7539 27.0744L55.7318 3.17427C55.6763 2.55575 55.1926 2.07204 54.5741 2.01653L30.674 0.00238691C30.4916 -0.0134725 30.3013 0.0499647 30.1744 0.18477L0.184287 30.1749C0.0662276 30.2941 0 30.4551 0 30.6229C0 30.7907 0.0662276 30.9517 0.184287 31.071L26.6853 57.572C26.9312 57.8258 27.3356 57.8258 27.5814 57.572ZM37.3111 15.275C38.794 13.7921 41.2046 13.7921 42.6954 15.275C44.1783 16.7578 44.1783 19.1685 42.6954 20.6593C41.2126 22.1421 38.8019 22.1421 37.3111 20.6593C35.8283 19.1764 35.8283 16.7658 37.3111 15.275ZM59.8156 37.7081L56.6755 34.5759C56.5562 34.4578 56.3952 34.3916 56.2274 34.3916C56.0597 34.3916 55.8986 34.4578 55.7794 34.5759L27.0739 63.2259L8.23293 44.4325C8.1137 44.3144 7.95269 44.2482 7.7849 44.2482C7.61711 44.2482 7.4561 44.3144 7.33688 44.4325L4.19672 47.5647C4.07866 47.684 4.01243 47.845 4.01243 48.0128C4.01243 48.1805 4.07866 48.3416 4.19672 48.4608L23.4817 67.7141L26.6219 70.8463C26.8677 71.0922 27.2721 71.0922 27.518 70.8463L59.8156 38.6042C60.0615 38.3583 60.0615 37.9539 59.8156 37.7081Z" fill="#0AFA96"/>
</svg>
