<svg width="66" height="66" viewBox="0 0 66 66" fill="none" xmlns="http://www.w3.org/2000/svg">
<path d="M2.54173 0C1.14124 0 0 1.14124 0 2.54173V43.2094C0 44.6099 1.14124 45.7512 2.54173 45.7512H43.2094C44.6099 45.7512 45.7512 44.6099 45.7512 43.2094V2.54173C45.7512 1.14124 44.6099 0 43.2094 0H2.54173ZM5.08346 5.08346H40.6677V35.5842H5.08346V5.08346ZM48.2929 7.38627V12.5485L52.9011 13.3441L48.2929 40.0323V43.2094C48.2929 46.0155 46.013 48.2929 43.2094 48.2929H16.2823L48.5318 53.8542C49.1954 53.9694 49.8776 53.8164 50.4285 53.429C50.9794 53.0415 51.354 52.4512 51.4701 51.7878L58.3023 11.6767C58.36 11.3479 58.3523 11.0109 58.2796 10.6851C58.207 10.3593 58.0708 10.051 57.8789 9.77781C57.6869 9.50466 57.443 9.27204 57.1611 9.09326C56.8792 8.91449 56.5647 8.79306 56.2358 8.73593L48.2929 7.38882V7.38627ZM22.8756 10.0068C19.9501 10.0068 17.4744 12.0199 17.4744 15.807C17.4744 18.2827 18.5775 20.7685 20.0949 22.3189C20.6897 23.8694 19.6781 24.4591 19.4595 24.543C16.3942 25.6512 12.7875 27.7074 12.7875 29.7052V32.9637H32.9637V29.7078C32.9637 27.649 29.3494 25.6054 26.1315 24.543C25.9841 24.4947 25.0716 24.0855 25.6562 22.3189C27.1686 20.7685 28.3556 18.27 28.3556 15.807C28.3556 12.0199 25.8011 10.0068 22.8756 10.0068ZM59.4918 20.0975L58.62 25.0996L60.4449 25.4961L53.4552 55.2039L52.4232 54.965C51.8564 55.5235 51.1636 55.9377 50.4032 56.1726C49.6428 56.4074 48.8371 56.4562 48.054 56.3146L12.8688 50.278L12.1495 53.3001C11.9997 53.9629 12.1153 54.658 12.4716 55.2366C12.8279 55.8152 13.3965 56.2313 14.0558 56.396L53.6128 65.6911C54.2755 65.8408 54.9706 65.7252 55.5492 65.3689C56.1278 65.0126 56.544 64.444 56.7086 63.7848L65.9275 24.2227C66.2503 22.8603 65.4699 21.4497 64.1025 21.1243L59.4943 20.0924L59.4918 20.0975Z" fill="#0AFA96"/>
</svg>
