<svg width="106" height="124" viewBox="0 0 106 124" fill="none" xmlns="http://www.w3.org/2000/svg">
<path d="M88 41.6667H99.6667C101.214 41.6667 102.698 42.2813 103.791 43.3752C104.885 44.4692 105.5 45.9529 105.5 47.5V117.5C105.5 119.047 104.885 120.531 103.791 121.625C102.698 122.719 101.214 123.333 99.6667 123.333H6.33333C4.78624 123.333 3.30251 122.719 2.20854 121.625C1.11458 120.531 0.5 119.047 0.5 117.5V47.5C0.5 45.9529 1.11458 44.4692 2.20854 43.3752C3.30251 42.2813 4.78624 41.6667 6.33333 41.6667H18V35.8333C18 26.5508 21.6875 17.6484 28.2513 11.0846C34.815 4.52083 43.7174 0.833336 53 0.833336C62.2826 0.833336 71.185 4.52083 77.7487 11.0846C84.3125 17.6484 88 26.5508 88 35.8333V41.6667ZM12.1667 53.3333V111.667H93.8333V53.3333H12.1667ZM47.1667 76.6667H58.8333V88.3333H47.1667V76.6667ZM23.8333 76.6667H35.5V88.3333H23.8333V76.6667ZM70.5 76.6667H82.1667V88.3333H70.5V76.6667ZM76.3333 41.6667V35.8333C76.3333 29.645 73.875 23.71 69.4992 19.3342C65.1233 14.9583 59.1884 12.5 53 12.5C46.8116 12.5 40.8767 14.9583 36.5008 19.3342C32.125 23.71 29.6667 29.645 29.6667 35.8333V41.6667H76.3333Z" fill="#1E1E32"/>
</svg>
