<svg width="317" height="231" viewBox="0 0 317 231" fill="none" xmlns="http://www.w3.org/2000/svg">
<path d="M12.7768 168.555L5.07111 206.067L4.3223 209.718L0 230.744V230.752H25.1889V230.748L63.4922 230.752L68.5672 206.075L30.26 206.071L37.9657 168.555L12.7768 168.555Z" fill="#0AFA96"/>
<path d="M253.353 0.000400983L248.278 24.6772L286.586 24.6811L278.88 62.1968H304.069L311.774 24.685L312.523 21.0339L316.845 0.00827745V0H291.656V0.00398119L253.353 0.000400983Z" fill="#0AFA96"/>
<path d="M134.143 62.0133L113.505 168.238H138.695L145.372 133.639H155.236C185.738 133.639 203.341 120.285 203.341 89.7833C203.341 70.5113 189.835 62.0133 167.831 62.0133H134.143ZM155.084 83.5618H163.127C173.143 83.5618 177.24 87.5072 177.24 94.184C177.24 107.993 169.804 111.939 157.664 111.939H149.621L155.084 83.5618Z" fill="#1E1E32"/>
</svg>
