<svg width="12" height="15" viewBox="0 0 12 15" fill="none" xmlns="http://www.w3.org/2000/svg">
<path d="M6.00011 9.00007C7.65463 9.00007 9.00014 7.65456 9.00014 6.00005C9.00014 4.34553 7.65463 3.00002 6.00011 3.00002C4.3456 3.00002 3.00009 4.34553 3.00009 6.00005C3.00009 7.65456 4.3456 9.00007 6.00011 9.00007ZM6.00011 4.50004C6.82737 4.50004 7.50013 5.17279 7.50013 6.00005C7.50013 6.8273 6.82737 7.50006 6.00011 7.50006C5.17286 7.50006 4.5001 6.8273 4.5001 6.00005C4.5001 5.17279 5.17286 4.50004 6.00011 4.50004Z" fill="#616177"/>
<path d="M5.56511 14.8606C5.69205 14.9513 5.84413 15 6.00011 15C6.1561 15 6.30818 14.9513 6.43512 14.8606C6.66312 14.6994 12.0219 10.8301 12.0002 6.00005C12.0002 2.69177 9.30839 0 6.00011 0C2.69184 0 6.60288e-05 2.69177 6.60288e-05 5.9963C-0.0216841 10.8301 5.33711 14.6994 5.56511 14.8606ZM6.00011 1.50001C8.48188 1.50001 10.5001 3.51828 10.5001 6.0038C10.5159 9.33232 7.20912 12.3211 6.00011 13.3014C4.79185 12.3203 1.48433 9.33082 1.50008 6.00005C1.50008 3.51828 3.51834 1.50001 6.00011 1.50001Z" fill="#616177"/>
</svg>
