<svg width="113" height="75" viewBox="0 0 113 75" fill="none" xmlns="http://www.w3.org/2000/svg">
<path d="M36.377 37.9883C36.377 39.1927 35.9619 40.1937 35.1318 40.9912C34.3018 41.7887 33.2845 42.1875 32.0801 42.1875C31.1361 42.1875 30.3792 41.9271 29.8096 41.4062C29.2399 40.8854 28.9551 40.1693 28.9551 39.2578C28.9551 38.0534 29.362 37.0361 30.1758 36.2061C30.9896 35.376 31.9987 34.9609 33.2031 34.9609C34.1146 34.9609 34.8714 35.2295 35.4736 35.7666C36.0758 36.3037 36.377 37.0443 36.377 37.9883ZM74.707 30.7129C74.707 32.0801 74.349 33.0078 73.6328 33.4961C72.9167 33.9844 71.8424 34.2285 70.4102 34.2285L68.8477 34.2773L69.6777 29.0527C69.7428 28.6947 69.9544 28.5156 70.3125 28.5156H71.1914C71.9076 28.5156 72.4772 28.5482 72.9004 28.6133C73.3236 28.6784 73.7305 28.8818 74.1211 29.2236C74.5117 29.5654 74.707 30.0618 74.707 30.7129ZM91.8457 37.9883C91.8457 39.1602 91.4307 40.153 90.6006 40.9668C89.7705 41.7806 88.7695 42.1875 87.5977 42.1875C86.6536 42.1875 85.8887 41.9271 85.3027 41.4062C84.7168 40.8854 84.4238 40.1693 84.4238 39.2578C84.4238 38.0534 84.8307 37.0361 85.6445 36.2061C86.4583 35.376 87.4674 34.9609 88.6719 34.9609C89.5833 34.9609 90.3402 35.2295 90.9424 35.7666C91.5446 36.3037 91.8457 37.0443 91.8457 37.9883ZM25.0488 29.6387C25.0488 27.7181 24.4222 26.3265 23.1689 25.4639C21.9157 24.6012 20.2799 24.1699 18.2617 24.1699H10.4492C9.83073 24.1699 9.48893 24.4792 9.42383 25.0977L6.25 45.0195C6.21745 45.2148 6.26628 45.3939 6.39648 45.5566C6.52669 45.7194 6.68945 45.8008 6.88477 45.8008H10.5957C11.2467 45.8008 11.6048 45.4915 11.6699 44.873L12.5488 39.502C12.5814 39.2415 12.6953 39.0299 12.8906 38.8672C13.0859 38.7044 13.3301 38.5986 13.623 38.5498C13.916 38.501 14.1927 38.4766 14.4531 38.4766C14.7135 38.4766 15.0228 38.4928 15.3809 38.5254C15.7389 38.5579 15.9668 38.5742 16.0645 38.5742C18.8639 38.5742 21.0612 37.7848 22.6562 36.2061C24.2513 34.6273 25.0488 32.4382 25.0488 29.6387ZM40.1367 44.873L42.1387 32.1289C42.1712 31.9336 42.1224 31.7546 41.9922 31.5918C41.862 31.429 41.6992 31.3477 41.5039 31.3477H37.793C37.3372 31.3477 37.0605 31.8848 36.9629 32.959C36.084 31.6569 34.5378 31.0059 32.3242 31.0059C29.9805 31.0059 27.9867 31.8848 26.3428 33.6426C24.6989 35.4004 23.877 37.4674 23.877 39.8438C23.877 41.7643 24.4385 43.2943 25.5615 44.4336C26.6846 45.5729 28.1901 46.1426 30.0781 46.1426C30.9896 46.1426 31.9336 45.9473 32.9102 45.5566C33.8867 45.166 34.668 44.6452 35.2539 43.9941C35.1237 44.3848 35.0586 44.7266 35.0586 45.0195C35.0586 45.5404 35.2702 45.8008 35.6934 45.8008H39.0625C39.681 45.8008 40.0391 45.4915 40.1367 44.873ZM61.9629 32.0312C61.9629 31.8685 61.8978 31.7139 61.7676 31.5674C61.6374 31.4209 61.4909 31.3477 61.3281 31.3477H57.5684C57.2103 31.3477 56.9173 31.5104 56.6895 31.8359L51.5137 39.4531L49.3652 32.1289C49.2025 31.6081 48.8444 31.3477 48.291 31.3477H44.6289C44.4661 31.3477 44.3197 31.4209 44.1895 31.5674C44.0592 31.7139 43.9941 31.8685 43.9941 32.0312C43.9941 32.0964 44.3115 33.0566 44.9463 34.9121C45.5811 36.7676 46.2646 38.7695 46.9971 40.918C47.7295 43.0664 48.112 44.2057 48.1445 44.3359C45.4753 47.9818 44.1406 49.9349 44.1406 50.1953C44.1406 50.6185 44.3522 50.8301 44.7754 50.8301H48.5352C48.8932 50.8301 49.1862 50.6673 49.4141 50.3418L61.8652 32.373C61.9303 32.3079 61.9629 32.194 61.9629 32.0312ZM80.5176 29.6387C80.5176 27.7181 79.891 26.3265 78.6377 25.4639C77.3844 24.6012 75.7487 24.1699 73.7305 24.1699H65.9668C65.3158 24.1699 64.9577 24.4792 64.8926 25.0977L61.7188 45.0195C61.6862 45.2148 61.735 45.3939 61.8652 45.5566C61.9954 45.7194 62.1582 45.8008 62.3535 45.8008H66.3574C66.748 45.8008 67.0085 45.5892 67.1387 45.166L68.0176 39.502C68.0501 39.2415 68.1641 39.0299 68.3594 38.8672C68.5547 38.7044 68.7988 38.5986 69.0918 38.5498C69.3848 38.501 69.6615 38.4766 69.9219 38.4766C70.1823 38.4766 70.4915 38.4928 70.8496 38.5254C71.2077 38.5579 71.4355 38.5742 71.5332 38.5742C74.3327 38.5742 76.5299 37.7848 78.125 36.2061C79.7201 34.6273 80.5176 32.4382 80.5176 29.6387ZM95.6055 44.873L97.6074 32.1289C97.64 31.9336 97.5911 31.7546 97.4609 31.5918C97.3307 31.429 97.168 31.3477 96.9727 31.3477H93.2617C92.806 31.3477 92.5293 31.8848 92.4316 32.959C91.5853 31.6569 90.0391 31.0059 87.793 31.0059C85.4492 31.0059 83.4554 31.8848 81.8115 33.6426C80.1676 35.4004 79.3457 37.4674 79.3457 39.8438C79.3457 41.7643 79.9072 43.2943 81.0303 44.4336C82.1533 45.5729 83.6589 46.1426 85.5469 46.1426C86.4909 46.1426 87.4512 45.9473 88.4277 45.5566C89.4043 45.166 90.1693 44.6452 90.7227 43.9941C90.7227 44.0267 90.6901 44.1732 90.625 44.4336C90.5599 44.694 90.5273 44.8893 90.5273 45.0195C90.5273 45.5404 90.7389 45.8008 91.1621 45.8008H94.5312C95.1497 45.8008 95.5078 45.4915 95.6055 44.873ZM106.25 24.9023V24.8535C106.25 24.3978 106.038 24.1699 105.615 24.1699H102.002C101.644 24.1699 101.432 24.349 101.367 24.707L98.1934 45.0195L98.1445 45.1172C98.1445 45.2799 98.2096 45.4346 98.3398 45.5811C98.4701 45.7275 98.6328 45.8008 98.8281 45.8008H102.051C102.669 45.8008 103.011 45.4915 103.076 44.873L106.25 24.9023ZM19.1406 31.4453C18.9779 32.5846 18.5547 33.3333 17.8711 33.6914C17.1875 34.0495 16.2109 34.2285 14.9414 34.2285L13.3301 34.2773L14.1602 29.0527C14.2253 28.6947 14.4368 28.5156 14.7949 28.5156H15.7227C17.0247 28.5156 17.9688 28.7028 18.5547 29.0771C19.1406 29.4515 19.3359 30.2409 19.1406 31.4453ZM112.5 6.25V68.75C112.5 70.4427 111.882 71.9076 110.645 73.1445C109.408 74.3815 107.943 75 106.25 75H6.25C4.55729 75 3.09245 74.3815 1.85547 73.1445C0.61849 71.9076 0 70.4427 0 68.75V6.25C0 4.55729 0.61849 3.09245 1.85547 1.85547C3.09245 0.61849 4.55729 0 6.25 0H106.25C107.943 0 109.408 0.61849 110.645 1.85547C111.882 3.09245 112.5 4.55729 112.5 6.25Z" fill="#013088"/>
</svg>
