<svg width="670" height="133" viewBox="0 0 670 133" fill="none" xmlns="http://www.w3.org/2000/svg">
<path d="M7.41712 97.1514L2.94386 118.772L2.50917 120.877L0 132.996V133H14.6226V132.998L36.8582 133L39.8043 118.777L17.5664 118.774L22.0397 97.1512L7.41712 97.1514Z" fill="#0AFA96"/>
<path d="M633.142 0L630.196 14.2232L652.434 14.2255L647.96 35.8488H662.583L667.056 14.2277L667.491 12.1233L670 0.00455634V0.000198102H655.378V0.00250929L633.142 0Z" fill="#0AFA96"/>
<path d="M77.909 35.7429L65.9284 96.9687H80.5518L84.4279 77.0265H90.154C107.861 77.0265 118.079 69.3296 118.079 51.749C118.079 40.641 110.239 35.7429 97.4657 35.7429H77.909ZM90.0659 48.163H94.7348C100.549 48.163 102.927 50.4371 102.927 54.2855C102.927 62.2449 98.6109 64.5189 91.5635 64.5189H86.8945L90.0659 48.163Z" fill="#1E1E32"/>
<path d="M134.861 96.9687H149.485L161.465 35.7429H146.842L134.861 96.9687Z" fill="#1E1E32"/>
<path d="M179.48 75.1897C176.837 88.6595 182.916 97.6684 198.684 97.6684C211.546 97.6684 218.329 91.8958 223.174 84.1988L212.427 78.3385C209.872 82.3619 206.525 84.7235 201.591 84.7235C194.896 84.7235 193.311 80.0878 194.456 74.4025L197.539 58.309C198.684 52.6238 202.12 47.988 208.815 47.988C213.836 47.988 216.039 50.5247 216.92 54.2856L229.693 48.6003C227.491 40.9034 222.822 35.0432 210.753 35.0432C194.984 35.0432 185.559 44.0521 182.916 57.5218L179.48 75.1897Z" fill="#1E1E32"/>
<path d="M278.364 86.8226L291.578 67.7552H291.931L286.205 96.9687H300.3L312.28 35.7429H300.3L277.748 67.4928H277.395L267.265 35.7429H255.901L243.92 96.9687H258.015L263.741 67.7552H264.093L269.907 86.8226H278.364Z" fill="#1E1E32"/>
<path d="M357.956 96.9687L362.625 73.0906L388.965 35.7429H372.139L357.692 59.2711H357.164L351.79 35.7429H336.109L347.826 73.0906L343.157 96.9687H357.956Z" fill="#1E1E32"/>
<path d="M412.794 35.7429L400.813 96.9687H415.349L419.489 75.9769H425.039L431.382 96.9687H447.591L438.958 73.9653C446.622 71.0788 452.965 64.4316 452.965 51.3992C452.965 40.641 445.389 35.7429 433.848 35.7429H412.794ZM424.863 48.163H429.796C434.994 48.163 437.901 49.8248 437.901 53.9357C437.901 60.1458 434.289 63.5568 427.682 63.5568H421.868L424.863 48.163Z" fill="#1E1E32"/>
<path d="M493.003 97.6684C509.212 97.6684 516.612 89.7964 519.255 76.2394L527.183 35.7429H512.56L504.807 75.4522C503.662 81.2249 501.196 84.9859 494.588 84.9859C487.982 84.9859 486.924 81.2249 488.07 75.4522L495.822 35.7429H481.198L473.27 76.2394C470.627 89.7964 477.763 97.6684 493.003 97.6684Z" fill="#1E1E32"/>
<path d="M602.811 35.7429H588.716L582.373 68.2799H582.021L567.662 35.7429H554.536L542.555 96.9687H556.65L563.257 63.3819H563.609L577.969 96.9687H590.83L602.811 35.7429Z" fill="#1E1E32"/>
</svg>
