<svg width="112" height="83" viewBox="0 0 112 83" fill="none" xmlns="http://www.w3.org/2000/svg">
<path d="M89.9896 34.9749C88.4985 34.9749 86.8565 36.2075 86.8565 39.151H93.0054C93.0054 36.2075 91.4473 34.9749 89.9896 34.9749ZM70.3197 35.4532C68.9459 35.4532 68.0914 35.9867 67.4715 36.741L67.505 46.4545C68.0914 47.1352 68.9291 47.6871 70.3197 47.6871C72.5146 47.6871 73.989 45.0563 73.989 41.5425C73.989 38.1207 72.4811 35.4348 70.3197 35.4532ZM103.444 0.24176H8.0422C3.60223 0.24176 0 4.19707 0 9.07222V73.8289C0 78.704 3.60223 82.6594 8.0422 82.6594H103.444C107.884 82.6594 111.486 78.704 111.486 73.8289V9.07222C111.486 4.19707 107.884 0.24176 103.444 0.24176ZM27.9641 46.0682C27.9641 50.7777 24.563 53.4453 19.6036 53.4821C17.5596 53.4821 15.3144 53.0405 13.1028 51.9919V45.7554C15.1134 46.9328 17.6433 47.8342 19.6204 47.8342C20.944 47.8342 21.899 47.4479 21.899 46.2337C21.899 43.1063 12.8515 44.2837 12.8515 37.0537C12.8515 32.4177 16.0684 29.6582 20.8937 29.6582C22.8708 29.6582 24.831 29.9894 26.8081 30.854V36.9985C24.9986 35.9315 22.7032 35.3244 20.8937 35.3244C19.6371 35.3244 18.8664 35.7292 18.8664 36.741C18.8664 39.6845 27.9641 38.2863 27.9641 46.0682ZM39.4913 35.6556H34.9676V44.946C34.9676 48.7909 38.7373 47.5951 39.4913 47.2639V52.5806C38.7038 53.0589 37.2629 53.4453 35.3194 53.4453C31.7842 53.4453 29.137 50.5938 29.137 46.7304L29.1705 25.7765L34.9843 24.4151V30.0813H39.4913V35.6556ZM51.8897 36.0971C51.1357 35.8211 48.7566 35.4348 47.3492 37.4585V52.9853H41.4013V30.0813H46.545L46.9136 32.013C48.3042 29.1983 51.0855 29.7686 51.8729 30.0813H51.8897V36.0971ZM59.2785 52.9853H53.2971V30.0813H59.2785V52.9853ZM59.2785 26.6963L53.2971 28.0945V22.7778L59.2785 21.3797V26.6963ZM71.6936 53.4637C69.616 53.4637 68.3427 52.4886 67.4882 51.8079L67.4715 59.2035L61.5236 60.5832V30.0813H66.7678L67.0693 31.7003C67.8903 30.8724 69.3982 29.6582 71.7271 29.6582C75.899 29.6582 79.8363 33.7975 79.8363 41.3954C79.8363 49.6923 75.9493 53.4453 71.6936 53.4637ZM98.5679 43.9893H86.9235C87.1916 47.0432 89.2357 47.9446 91.5478 47.9446C93.9102 47.9446 95.7699 47.3927 97.3951 46.4913V51.7528C95.7699 52.7278 93.6421 53.4453 90.7938 53.4453C84.9967 53.4453 80.9421 49.4532 80.9421 41.5793C80.9421 34.9197 84.3768 29.6398 90.0399 29.6398C95.6862 29.6398 98.635 34.9197 98.635 41.6161C98.635 42.26 98.5847 43.6214 98.5679 43.9893Z" fill="#6772E5"/>
</svg>
